<?xml version="1.0" encoding="iso-8859-1"?>
<!-- Generator: Adobe Illustrator 16.0.0, SVG Export Plug-In . SVG Version: 6.00 Build 0)  -->
<!DOCTYPE svg PUBLIC "-//W3C//DTD SVG 1.1//EN" "http://www.w3.org/Graphics/SVG/1.1/DTD/svg11.dtd">
<svg version="1.1" id="Capa_1" xmlns="http://www.w3.org/2000/svg" xmlns:xlink="http://www.w3.org/1999/xlink" x="0px" y="0px"
	 width="612.02px" height="612.02px" viewBox="0 0 612.02 612.02" style="enable-background:new 0 0 612.02 612.02;"
	 xml:space="preserve">
<g>
	<g>
		<g>
			<g>
				<path d="M239.12,229.527c0,5.279-4.284,9.563-9.563,9.563c-5.279,0-9.563-4.283-9.563-9.563c0-21.118,8.567-40.283,22.393-54.09
					l0.638-0.578c13.806-13.507,32.693-21.835,53.452-21.835c21.078,0,40.204,8.566,54.049,22.413l0.021,0.02l0.02,0.02l0.021,0.02
					c13.847,13.847,22.394,32.972,22.394,54.03c0,5.279-4.282,9.563-9.562,9.563c-5.279,0-9.563-4.283-9.563-9.563
					c0-15.878-6.415-30.243-16.755-40.563l-0.04-0.04c-10.34-10.34-24.703-16.755-40.562-16.755
					c-15.599,0-29.764,6.196-40.064,16.257l-0.498,0.538C245.535,199.325,239.12,213.689,239.12,229.527L239.12,229.527z
					 M350.566,175.497l-0.06,13.448C354.252,185.259,354.272,179.243,350.566,175.497z"/>
			</g>
			<path d="M209.515,372.97c0-5.279,4.283-9.562,9.563-9.562c5.28,0,9.563,4.283,9.563,9.562c0,18.487,7.491,35.242,19.564,47.296
				l0.04,0.04c12.073,12.073,28.808,19.563,47.296,19.563c18.487,0,35.243-7.49,47.355-19.563l-0.021-0.021
				c12.112-12.112,19.604-28.848,19.604-47.315c0-18.469-7.491-35.203-19.604-47.296l-0.438-0.459
				c-12.072-11.834-28.629-19.125-46.898-19.125c-5.26,0-9.563-4.283-9.563-9.563c0-5.28,4.284-9.563,9.563-9.563
				c23.468,0,44.747,9.423,60.265,24.646l0.618,0.558c15.56,15.56,25.182,37.076,25.182,60.844c0,23.747-9.643,45.283-25.201,60.844
				l-0.021-0.021l-0.02,0.021c-15.561,15.56-37.076,25.201-60.805,25.201c-23.688,0-45.185-9.622-60.764-25.201l-0.02-0.021
				l-0.02-0.021l-0.02-0.021C219.158,418.174,209.515,396.677,209.515,372.97z"/>
			<path d="M286.874,111.008c0-5.28,4.284-9.563,9.562-9.563c5.279,0,9.563,4.283,9.563,9.563v51.559
				c0,5.28-4.284,9.563-9.563,9.563c-5.26,0-9.562-4.283-9.562-9.563V111.008z"/>
			<path d="M285.998,449.452c0-5.279,4.283-9.563,9.563-9.563c5.279,0,9.563,4.284,9.563,9.563v44.785
				c0,5.279-4.283,9.562-9.563,9.562c-5.26,0-9.563-4.283-9.563-9.562V449.452z"/>
			<path d="M219.994,229.567c0-5.279,4.284-9.563,9.563-9.563c5.279,0,9.563,4.283,9.563,9.563c0,15.838,6.435,30.203,16.794,40.563
				l0.498,0.538c10.3,10.061,24.445,16.257,40.064,16.257c5.28,0,9.563,4.284,9.563,9.563c0,5.279-4.283,9.563-9.563,9.563
				c-20.759,0-39.646-8.328-53.452-21.835l-0.638-0.578C228.541,269.831,219.994,250.685,219.994,229.567z"/>
			<path d="M592.884,306.01v-0.02c0-79.192-32.114-150.913-84.013-202.831C456.933,51.221,385.19,19.086,306.039,19.086v0.04h-0.021
				c-79.212,0-150.933,32.115-202.851,84.033C51.271,155.057,19.135,226.798,19.135,306.01s32.115,150.934,84.033,202.853
				c51.898,51.918,123.639,84.032,202.851,84.032h0.021c79.191,0,150.914-32.114,202.832-84.032
				c51.938-51.938,84.053-123.659,84.053-202.833h-0.04V306.01L592.884,306.01z M612.01,305.99v0.02v0.02h-0.04
				c0.021,84.492-34.227,161.014-89.571,216.359c-55.364,55.386-131.866,89.631-216.358,89.631h-0.021
				c-84.491,0-160.994-34.245-216.378-89.631C34.258,467.004,0.01,390.501,0.01,306.01c0-84.491,34.247-161.014,89.631-216.378
				C145.006,34.247,221.509,0,306.02,0h0.021v0.04c84.492,0.02,161.015,34.247,216.358,89.592
				C577.743,144.996,612.01,221.499,612.01,305.99z"/>
		</g>
	</g>
</g>
<g>
</g>
<g>
</g>
<g>
</g>
<g>
</g>
<g>
</g>
<g>
</g>
<g>
</g>
<g>
</g>
<g>
</g>
<g>
</g>
<g>
</g>
<g>
</g>
<g>
</g>
<g>
</g>
<g>
</g>
</svg>
