<svg width="55" height="55" viewBox="0 0 55 55" fill="none" xmlns="http://www.w3.org/2000/svg">
<g id="uim:process">
<path id="Vector" d="M19.7663 19.4792H9.45378C8.84599 19.4792 8.26309 19.2378 7.83332 18.808C7.40355 18.3782 7.16211 17.7953 7.16211 17.1875V6.87504C7.16211 6.26725 7.40355 5.68436 7.83332 5.25459C8.26309 4.82482 8.84599 4.58337 9.45378 4.58337C10.0616 4.58337 10.6445 4.82482 11.0742 5.25459C11.504 5.68436 11.7454 6.26725 11.7454 6.87504V14.8959H19.7663C20.3741 14.8959 20.957 15.1373 21.3867 15.5671C21.8165 15.9969 22.0579 16.5798 22.0579 17.1875C22.0579 17.7953 21.8165 18.3782 21.3867 18.808C20.957 19.2378 20.3741 19.4792 19.7663 19.4792Z" fill="url(#paint0_linear_13_716)"/>
<path id="Vector_2" d="M48.1257 29.7916C47.518 29.7916 46.9351 29.5502 46.5053 29.1204C46.0755 28.6906 45.8341 28.1078 45.8341 27.5C45.8358 23.4656 44.5059 19.5434 42.0507 16.3421C39.5956 13.1408 36.1524 10.8393 32.2556 9.79484C28.3587 8.75037 24.2261 9.02129 20.499 10.5656C16.7718 12.1099 13.6586 14.8411 11.6424 18.3356C11.3379 18.8616 10.8369 19.2452 10.2496 19.4018C9.66234 19.5585 9.03688 19.4754 8.51084 19.1709C7.9848 18.8664 7.60127 18.3654 7.44462 17.7781C7.28796 17.1908 7.37103 16.5654 7.67553 16.0393C10.1969 11.672 14.0892 8.25878 18.7484 6.32929C23.4077 4.3998 28.5735 4.06188 33.4444 5.36794C38.3153 6.67401 42.619 9.55104 45.6879 13.5527C48.7568 17.5544 50.4192 22.457 50.4174 27.5C50.4174 28.1078 50.176 28.6906 49.7462 29.1204C49.3164 29.5502 48.7335 29.7916 48.1257 29.7916ZM45.5476 50.4166C44.9398 50.4166 44.3569 50.1752 43.9272 49.7454C43.4974 49.3157 43.2559 48.7328 43.2559 48.125V40.1041H35.2351C34.6273 40.1041 34.0444 39.8627 33.6147 39.4329C33.1849 39.0032 32.9434 38.4203 32.9434 37.8125C32.9434 37.2047 33.1849 36.6218 33.6147 36.192C34.0444 35.7622 34.6273 35.5208 35.2351 35.5208H45.5476C46.1554 35.5208 46.7383 35.7622 47.1681 36.192C47.5978 36.6218 47.8393 37.2047 47.8393 37.8125V48.125C47.8393 48.7328 47.5978 49.3157 47.1681 49.7454C46.7383 50.1752 46.1554 50.4166 45.5476 50.4166Z" fill="url(#paint1_linear_13_716)"/>
<path id="Vector_3" d="M27.5007 50.4167C21.425 50.4094 15.6003 47.9927 11.3042 43.6965C7.00803 39.4004 4.59126 33.5757 4.58398 27.5C4.58398 26.8923 4.82543 26.3094 5.2552 25.8796C5.68497 25.4498 6.26786 25.2084 6.87565 25.2084C7.48344 25.2084 8.06633 25.4498 8.4961 25.8796C8.92588 26.3094 9.16732 26.8923 9.16732 27.5C9.16558 31.5344 10.4955 35.4566 12.9506 38.6579C15.4058 41.8592 18.849 44.1607 22.7458 45.2052C26.6427 46.2496 30.7753 45.9787 34.5024 44.4344C38.2296 42.8902 41.3428 40.1589 43.359 36.6644C43.5098 36.4039 43.7104 36.1757 43.9493 35.9928C44.1883 35.8098 44.461 35.6758 44.7518 35.5982C45.0426 35.5206 45.3458 35.5011 45.6441 35.5407C45.9425 35.5803 46.2301 35.6783 46.4906 35.8291C46.751 35.9799 46.9792 36.1805 47.1622 36.4195C47.3451 36.6584 47.4792 36.9311 47.5568 37.2219C47.6343 37.5127 47.6539 37.8159 47.6143 38.1142C47.5746 38.4126 47.4766 38.7002 47.3259 38.9607C45.3104 42.4359 42.4194 45.3224 38.9409 47.3324C35.4625 49.3424 31.5181 50.4058 27.5007 50.4167Z" fill="url(#paint2_linear_13_716)"/>
</g>
<defs>
<linearGradient id="paint0_linear_13_716" x1="14.61" y1="4.58337" x2="14.61" y2="19.4792" gradientUnits="userSpaceOnUse">
<stop stop-color="#24A5DC"/>
<stop offset="1" stop-color="#10739E"/>
</linearGradient>
<linearGradient id="paint1_linear_13_716" x1="28.8923" y1="4.58643" x2="28.8923" y2="50.4166" gradientUnits="userSpaceOnUse">
<stop stop-color="#24A5DC"/>
<stop offset="1" stop-color="#10739E"/>
</linearGradient>
<linearGradient id="paint2_linear_13_716" x1="26.1091" y1="25.2084" x2="26.1091" y2="50.4167" gradientUnits="userSpaceOnUse">
<stop stop-color="#24A5DC"/>
<stop offset="1" stop-color="#10739E"/>
</linearGradient>
</defs>
</svg>
